<!DOCTYPE svg PUBLIC "-//W3C//DTD SVG 1.1//EN" "http://www.w3.org/Graphics/SVG/1.1/DTD/svg11.dtd">
<!-- Uploaded to: SVG Repo, www.svgrepo.com, Transformed by: SVG Repo Mixer Tools -->
<svg fill="#000000" version="1.1" id="Capa_1" xmlns="http://www.w3.org/2000/svg" xmlns:xlink="http://www.w3.org/1999/xlink" width="165px" height="165px" viewBox="-68.6 -68.6 594.54 594.54" xml:space="preserve">
<g id="SVGRepo_bgCarrier" stroke-width="0"/>
<g id="SVGRepo_tracerCarrier" stroke-linecap="round" stroke-linejoin="round" stroke="#0e6f01" stroke-width="13.72014"> <g> <g> <path d="M13.738,345.63c7.59,0,13.739-6.155,13.739-13.737V140.401c7.348,1.741,17.236,5.759,27.429,14.942 c22.019,19.841,48.255,66.575,48.255,176.549c0,7.582,6.146,13.737,13.74,13.737c7.59,0,13.737-6.155,13.737-13.737 c0-92.563-17.805-157.244-52.874-192.601h246.218v192.601c0,7.582,6.14,13.737,13.737,13.737c7.591,0,13.737-6.155,13.737-13.737 V139.834c7.515,1.351,18.631,5.144,30.145,15.517c22.024,19.841,48.262,66.576,48.262,176.549c0,7.582,6.146,13.737,13.737,13.737 c7.598,0,13.737-6.155,13.737-13.737c0-97.324-19.648-163.908-58.396-197.893c-17.909-15.715-35.87-20.514-47.484-21.841v-0.338 h-3.734c-3.687-0.22-6.368-0.114-7.843,0H21.029c-3.689-0.22-6.376-0.114-7.843,0H0v220.08C0,339.475,6.144,345.63,13.738,345.63z "/> </g> </g> </g>
<g id="SVGRepo_iconCarrier"> <g> <g> <path d="M13.738,345.63c7.59,0,13.739-6.155,13.739-13.737V140.401c7.348,1.741,17.236,5.759,27.429,14.942 c22.019,19.841,48.255,66.575,48.255,176.549c0,7.582,6.146,13.737,13.74,13.737c7.59,0,13.737-6.155,13.737-13.737 c0-92.563-17.805-157.244-52.874-192.601h246.218v192.601c0,7.582,6.14,13.737,13.737,13.737c7.591,0,13.737-6.155,13.737-13.737 V139.834c7.515,1.351,18.631,5.144,30.145,15.517c22.024,19.841,48.262,66.576,48.262,176.549c0,7.582,6.146,13.737,13.737,13.737 c7.598,0,13.737-6.155,13.737-13.737c0-97.324-19.648-163.908-58.396-197.893c-17.909-15.715-35.87-20.514-47.484-21.841v-0.338 h-3.734c-3.687-0.22-6.368-0.114-7.843,0H21.029c-3.689-0.22-6.376-0.114-7.843,0H0v220.08C0,339.475,6.144,345.63,13.738,345.63z "/> </g> </g> </g>
</svg>